<mxfile host="65bd71144e">
    <diagram id="vtmBnGg1nxHVVbGZHZkQ" name="Страница 1">
        <mxGraphModel dx="902" dy="502" grid="1" gridSize="10" guides="1" tooltips="1" connect="1" arrows="1" fold="1" page="1" pageScale="1" pageWidth="850" pageHeight="1100" math="0" shadow="0">
            <root>
                <mxCell id="0"/>
                <mxCell id="1" parent="0"/>
                <mxCell id="5" value="" style="edgeStyle=none;html=1;fontFamily=Times New Roman;" parent="1" source="2" target="4" edge="1">
                    <mxGeometry relative="1" as="geometry"/>
                </mxCell>
                <mxCell id="2" value="Start" style="ellipse;whiteSpace=wrap;html=1;" parent="1" vertex="1">
                    <mxGeometry x="450" y="150" width="100" height="40" as="geometry"/>
                </mxCell>
                <mxCell id="3" value="&lt;h1&gt;&lt;em style=&quot;box-sizing: border-box; color: rgb(44, 45, 48); font-size: 15px; background-color: rgb(255, 255, 255);&quot;&gt;Задача&lt;/em&gt;&lt;span style=&quot;color: rgb(44, 45, 48); font-size: 15px; background-color: rgb(255, 255, 255);&quot;&gt;: Написать программу, которая из имеющегося массива строк формирует новый массив из строк, длина которых меньше, либо равна 3 символам. Первоначальный массив можно ввести с клавиатуры, либо задать на старте выполнения алгоритма. При решении не рекомендуется пользоваться коллекциями, лучше обойтись исключительно массивами.&lt;/span&gt;&lt;br&gt;&lt;/h1&gt;" style="text;html=1;strokeColor=none;fillColor=none;spacing=5;spacingTop=-20;whiteSpace=wrap;overflow=hidden;rounded=0;fontFamily=Times New Roman;fontStyle=1" parent="1" vertex="1">
                    <mxGeometry y="10" width="630" height="140" as="geometry"/>
                </mxCell>
                <mxCell id="8" value="" style="edgeStyle=none;html=1;fontFamily=Times New Roman;" parent="1" source="4" target="6" edge="1">
                    <mxGeometry relative="1" as="geometry"/>
                </mxCell>
                <mxCell id="4" value="Введите колличество элементов массива:&lt;br&gt;Создание массива размером stringArray [a];" style="rounded=0;whiteSpace=wrap;html=1;fontFamily=Times New Roman;" parent="1" vertex="1">
                    <mxGeometry x="405" y="220" width="190" height="60" as="geometry"/>
                </mxCell>
                <mxCell id="9" value="Yes" style="edgeStyle=none;html=1;fontFamily=Times New Roman;entryX=0.5;entryY=0;entryDx=0;entryDy=0;" parent="1" source="6" target="7" edge="1">
                    <mxGeometry relative="1" as="geometry">
                        <mxPoint x="390" y="340" as="targetPoint"/>
                        <Array as="points">
                            <mxPoint x="710" y="380"/>
                        </Array>
                    </mxGeometry>
                </mxCell>
                <mxCell id="11" value="No" style="edgeStyle=none;html=1;fontFamily=Times New Roman;exitX=0;exitY=0.5;exitDx=0;exitDy=0;" parent="1" source="6" edge="1">
                    <mxGeometry relative="1" as="geometry">
                        <Array as="points">
                            <mxPoint x="180" y="380"/>
                        </Array>
                        <mxPoint x="180" y="470" as="targetPoint"/>
                    </mxGeometry>
                </mxCell>
                <mxCell id="6" value="for (int i = 0; i &amp;lt;= stringArray.Length; i++)&lt;br&gt;if (stringArray[i].Length &amp;lt;=3)" style="rhombus;whiteSpace=wrap;html=1;fontFamily=Times New Roman;" parent="1" vertex="1">
                    <mxGeometry x="370" y="320" width="260" height="120" as="geometry"/>
                </mxCell>
                <mxCell id="13" value="" style="edgeStyle=none;html=1;fontFamily=Times New Roman;" parent="1" source="7" edge="1">
                    <mxGeometry relative="1" as="geometry">
                        <mxPoint x="710" y="600" as="targetPoint"/>
                    </mxGeometry>
                </mxCell>
                <mxCell id="7" value="Добавляем этот элемент массива stringArray в новый массив resultArray[ ]" style="rounded=0;whiteSpace=wrap;html=1;fontFamily=Times New Roman;" parent="1" vertex="1">
                    <mxGeometry x="650" y="440" width="120" height="60" as="geometry"/>
                </mxCell>
                <mxCell id="10" value="Вывод на консоле записи: таких элементов нет!" style="whiteSpace=wrap;html=1;fontFamily=Times New Roman;" parent="1" vertex="1">
                    <mxGeometry x="120" y="470" width="120" height="60" as="geometry"/>
                </mxCell>
                <mxCell id="12" value="print(resultArray[ ])" style="rounded=0;whiteSpace=wrap;html=1;fontFamily=Times New Roman;" parent="1" vertex="1">
                    <mxGeometry x="650" y="590" width="120" height="60" as="geometry"/>
                </mxCell>
                <mxCell id="14" value="Exit" style="ellipse;whiteSpace=wrap;html=1;fontFamily=Times New Roman;" parent="1" vertex="1">
                    <mxGeometry x="270" y="590" width="120" height="80" as="geometry"/>
                </mxCell>
                <mxCell id="15" value="" style="endArrow=classic;html=1;fontFamily=Times New Roman;entryX=1;entryY=0.5;entryDx=0;entryDy=0;exitX=0;exitY=0.5;exitDx=0;exitDy=0;" parent="1" edge="1">
                    <mxGeometry width="50" height="50" relative="1" as="geometry">
                        <mxPoint x="650" y="630" as="sourcePoint"/>
                        <mxPoint x="390" y="630" as="targetPoint"/>
                        <Array as="points">
                            <mxPoint x="490" y="630"/>
                        </Array>
                    </mxGeometry>
                </mxCell>
                <mxCell id="16" value="" style="endArrow=classic;html=1;fontFamily=Times New Roman;exitX=0.5;exitY=1;exitDx=0;exitDy=0;entryX=0;entryY=0.5;entryDx=0;entryDy=0;" parent="1" edge="1">
                    <mxGeometry width="50" height="50" relative="1" as="geometry">
                        <mxPoint x="180" y="530" as="sourcePoint"/>
                        <mxPoint x="270" y="630" as="targetPoint"/>
                        <Array as="points">
                            <mxPoint x="180" y="630"/>
                        </Array>
                    </mxGeometry>
                </mxCell>
                <mxCell id="17" value="" style="endArrow=classic;html=1;fontFamily=Times New Roman;entryX=0.5;entryY=0;entryDx=0;entryDy=0;exitX=1;exitY=0.5;exitDx=0;exitDy=0;" parent="1" source="7" target="6" edge="1">
                    <mxGeometry width="50" height="50" relative="1" as="geometry">
                        <mxPoint x="410" y="950" as="sourcePoint"/>
                        <mxPoint x="460" y="900" as="targetPoint"/>
                        <Array as="points">
                            <mxPoint x="830" y="470"/>
                            <mxPoint x="830" y="320"/>
                        </Array>
                    </mxGeometry>
                </mxCell>
            </root>
        </mxGraphModel>
    </diagram>
</mxfile>